<svg width="1449" height="549" viewBox="0 0 1449 549" xmlns="http://www.w3.org/2000/svg"><path d="M937.31 198.467c-4.013-3.002-8.095-5.419-12.504-7.057.125 2.051.3 4.044.497 6.01 6.985 17.262 17.283 32.638 29.943 45.723 2.116.892 4.278 1.783 6.385 2.673 10.02 4.236 19.936 8.414 29.98 12.4-23.623-13.898-42.808-34.542-54.3-59.75zm433.312-109.502c0-43.73-35.794-79.31-79.78-79.31-43.992 0-79.781 35.582-79.781 79.316 0 33.837 32.774 58.48 65.642 49l12.393-3.581-5.825 11.451c-15.343 30.162-41.447 48.169-69.831 48.169-28.888 0-42.984-10.066-80.542-10.982 1.442 35.883 15.72 59.408 51.585 53.917 15.209 2.542 26.82 2.42 38.785.99-19.223 7.798-40.256 12.127-62.307 12.127-70.894 0-73.346-38.51-136.672-40.585.647 48.34 14.904 53.402 40.768 59.152 9.778 6.34 20.05 11.658 30.803 15.801-19.821-1.55-41.212-5.164-61.216-13.402-63.314-24.254-75.312-90.56-127.787-94.913.217 41.19 7.562 65.282 45.618 80.907 52.788 21.665 102.649 42.123 181.82 42.123 130.306 0 236.32-94.283 236.327-210.18zm-23.759 114.179c-42.654 66.398-122.194 111.18-213.145 111.18-169.865 0-206.455-92.4-410.625-92.4-204.183 0-240.754 92.4-410.634 92.4-90.955 0-170.493-44.784-213.147-111.18L12.919 435.16c83.93 66.433 190.136 102.974 299.55 102.977 212.607 0 276.957-92.402 410.615-92.402 133.679 0 197.99 92.402 410.624 92.402 109.41-.003 215.618-36.544 299.55-102.977l-86.395-232.017zM313.05 301.224c79.173 0 129.035-20.459 181.822-42.124 38.092-15.636 45.406-39.78 45.623-80.907-52.483 4.353-64.454 70.651-127.787 94.914-20.005 8.237-41.394 11.851-61.218 13.402 10.756-4.143 21.028-9.461 30.804-15.802 24.73-5.5 40.109-9.744 40.767-59.152-63.358 2.078-65.74 40.586-136.67 40.586-22.05 0-43.085-4.33-62.306-12.127 11.882 1.42 23.582 1.55 38.785-.99 35.905 5.497 50.15-18.275 51.583-53.917-37.554.914-51.658 10.981-80.542 10.981-28.382 0-54.486-18.006-69.828-48.168l-5.826-11.451 12.391 3.58c32.822 9.468 65.644-15.103 65.644-49 0-43.733-35.791-79.315-79.78-79.315-43.99 0-79.782 35.582-79.782 79.316.01 115.893 106.015 210.173 236.32 210.173zm1069.337-209.78c-.002 35.506-9.334 69.066-25.827 98.866l92.435 247.842c-93.754 75.413-203.718 110.44-313.161 110.44-215.088 0-280.53-92.351-411.051-92.351-130.537 0-195.955 92.351-411.041 92.351-109.73 0-219.645-35.218-313.164-110.44l92.435-247.845c-16.495-29.805-25.827-63.37-25.827-98.877C67.193 41.342 107.854.595 157.822.595c49.974 0 90.631 40.755 90.631 90.848 0 36.204-30.841 65.094-67.204 62.236 13.51 20.265 32.955 32.05 53.662 32.05 28.181 0 42.822-11.097 85.914-11.097h5.585v5.598c0 27.775-7.15 48.74-20.66 60.676 50.614-6.392 57.683-39.738 123.171-39.738h5.585v5.6c0 16.956-.818 33.966-6.882 47.614 46.278-29.296 61.139-86.856 118.234-86.856h5.584v5.6c0 21.926-.067 49.149-15.494 70.607 48.555-18.312 104.443-33.581 188.843-33.581 84.403 0 140.29 15.269 188.84 33.581-15.427-21.458-15.494-48.68-15.494-70.607v-5.6h5.586c57.093 0 71.954 57.559 118.234 86.856-6.066-13.648-6.884-30.658-6.884-47.614v-5.6h5.587c65.497 0 72.518 33.34 123.17 39.738-13.509-11.936-20.659-32.901-20.659-60.676v-5.598h5.583c43.096 0 57.733 11.097 85.914 11.097 20.71 0 40.154-11.785 53.662-32.05-36.36 2.858-67.202-26.03-67.202-62.236 0-50.093 40.657-90.848 90.631-90.848 49.968 0 90.62 40.747 90.627 90.835v.013zm-57.7-4.151c0-18.82-15.324-34.133-34.16-34.133-18.838 0-34.164 15.312-34.164 34.133v5.617h11.246v-5.617c0-12.625 10.28-22.896 22.918-22.896 12.634 0 22.914 10.27 22.914 22.896 0 43.177-18.093 82.209-48.407 104.413-41.556 30.455-91.408 18.045-116.315 2.82-1.372-.162-2.668-.348-4.116-.482.78 4.836 1.929 9.162 3.37 13 36.014 19.293 85.665 21.599 123.714-6.279 33.187-24.31 53-66.73 53-113.472zm67.747 341.299l-65.371-159.04c-51.57 45.666-119.214 70.716-191.415 70.716-177.753 0-213.872-92.263-411.262-92.263-197.417 0-233.488 92.263-411.272 92.263-72.202 0-139.847-25.05-191.418-70.715l-65.37 159.039c75.168 50.987 163.855 77.917 256.788 77.92 208.278 0 267.56-92.264 411.262-92.264 143.717 0 202.982 92.265 411.272 92.265 92.933-.004 181.62-26.934 256.786-77.921zm-58.524-177.278l74.946 181.58c-83.262 57.499-174.577 84.685-270.657 84.69-210.858 0-270.796-91.913-411.437-91.913-140.66 0-200.562 91.912-411.427 91.912-96.271-.004-187.555-27.298-270.663-84.689l74.948-181.58c57.067 53.377 122.025 78.374 195.715 78.374 174.571 0 211.375-91.913 411.437-91.913 200.075 0 236.854 91.913 411.427 91.913 73.7 0 138.655-25.006 195.71-78.374h.001zm14.07 170.978l-45.022-100.24c-49.644 30.205-107.324 46.14-167.24 46.145-184.488 0-221.652-92.107-411.249-92.107-189.549 0-226.818 92.107-411.258 92.107-59.92-.004-117.598-15.94-167.242-46.144l-45.021 100.24c63.941 36.108 137.224 55.181 212.263 55.181 207.431 0 254.574-92.104 411.249-92.104 156.649 0 203.853 92.104 411.258 92.104 75.04 0 148.321-19.073 212.263-55.182zm-38.027-115.544l54.359 121.14c-71.454 41.501-146.464 61.698-226.316 61.702-208.802 0-258.095-92.077-410.76-92.077-152.705 0-201.906 92.077-410.75 92.077-79.899-.004-154.901-20.224-226.316-61.703l54.359-121.14c51.223 32.689 106.16 51.265 171.957 51.269 181.725 0 218.224-92.079 410.76-92.079 192.505 0 229.08 92.079 410.75 92.079 65.985-.004 120.91-18.692 171.957-51.268zm-814.575-59.221c12.662-13.086 22.958-28.462 29.944-45.723.199-1.966.372-3.96.497-6.01-4.408 1.638-8.491 4.055-12.503 7.056-11.495 25.208-30.68 45.851-54.302 59.749 10.044-3.985 19.958-8.163 29.98-12.4 2.106-.889 4.268-1.78 6.384-2.672zM219.143 271.13c65.626 28.967 131.623 17.28 177.388-27.422 1.2-1.171 8.122-8.075 14.136-16.503.003-.06.011-.117.017-.178-6.633.867-12.334 2.272-17.546 4.018-1.663 1.827-3.16 3.39-4.219 4.421-43.367 42.366-105.207 51.807-165.422 25.22-68.479-30.222-114.49-98.082-114.49-168.868 0-28.667 22.686-51.989 50.567-51.989 27.883 0 50.567 23.322 50.567 51.99 0 12.766-10.102 23.153-22.52 23.153s-22.52-10.387-22.52-23.154v-5.68H154.05v5.68c0 19.032 15.061 34.517 33.572 34.517 18.511 0 33.572-15.485 33.572-34.517 0-34.932-27.643-63.352-61.619-63.352S97.957 56.878 97.957 91.805c0 75.27 48.7 147.336 121.186 179.325zm-62.32-204.066c12.635 0 22.917 10.273 22.917 22.9v5.619h11.244v-5.619c0-18.823-15.325-34.138-34.162-34.138-18.836 0-34.162 15.315-34.162 34.138 0 46.748 19.813 89.176 53.002 113.49 37.65 27.588 87.322 25.779 123.713 6.279 1.44-3.838 2.591-8.165 3.37-13.002-1.448.134-2.745.32-4.117.481-24.868 15.207-74.714 27.671-116.315-2.82-30.311-22.207-48.406-61.244-48.406-104.428 0-12.627 10.28-22.9 22.915-22.9zm1135.89-43.272c-33.979 0-61.62 28.42-61.62 63.353 0 19.032 15.061 34.517 33.572 34.517 18.511 0 33.572-15.485 33.572-34.517v-5.68h-11.052v5.68c0 12.767-10.104 23.154-22.52 23.154-12.417 0-22.521-10.387-22.521-23.154 0-28.668 22.685-51.99 50.568-51.99 27.881 0 50.565 23.322 50.565 51.99 0 70.787-46.01 138.649-114.49 168.872-60.213 26.587-122.055 17.146-165.42-25.22-1.058-1.032-2.557-2.595-4.218-4.423-5.215-1.745-10.913-3.15-17.546-4.017.005.06.013.117.015.178 6.015 8.428 12.938 15.332 14.138 16.503 46.281 45.21 112.464 56.08 177.388 27.422 72.484-31.99 121.185-104.057 121.185-179.328 0-34.927-27.642-63.34-61.617-63.34z"/></svg>